<svg width="50" height="50" viewBox="0 0 50 50" fill="none" xmlns="http://www.w3.org/2000/svg">
<path d="M46.1521 7.45915C45.8093 7.11757 45.345 6.92578 44.8611 6.92578C44.3772 6.92578 43.913 7.11757 43.5701 7.45915L34.9685 16.0608L34.3907 15.4957C32.8674 14.0078 30.8679 13.1053 28.7444 12.9471C26.6209 12.7889 24.5097 13.3851 22.7828 14.6308C20.2903 16.5104 17.5197 17.9895 14.5711 19.0147L10.8264 20.1125C9.60953 20.4697 8.48085 21.0775 7.51286 21.8968C6.54487 22.7162 5.75899 23.729 5.20569 24.8701C4.66151 25.9958 4.35842 27.2227 4.31582 28.4723C4.27322 29.7218 4.49207 30.9665 4.95833 32.1266C6.72557 36.465 9.75518 40.1724 13.6545 42.7685C17.5538 45.3646 22.143 46.7296 26.8272 46.6866H28.4956C28.8688 46.6864 29.2331 46.5717 29.5392 46.358C32.7173 44.2835 35.4335 41.5759 37.518 38.4043C39.6026 35.2328 41.0107 31.6654 41.6544 27.9251C41.8784 26.4949 41.7571 25.0319 41.3007 23.6581C40.8443 22.2843 40.0661 21.0396 39.031 20.0276L37.5865 18.6121L46.1575 10.0411C46.4984 9.69756 46.6892 9.23294 46.6882 8.749C46.6871 8.26506 46.4944 7.80125 46.1521 7.45915V7.45915ZM27.9033 43.0286H26.82C24.1522 43.0323 21.5095 42.5127 19.0417 41.4993L19.0615 41.4884C22.2193 39.904 24.9225 37.5431 26.9175 34.6273L27.8528 33.2533C28.1252 32.8535 28.2277 32.3617 28.1377 31.8863C28.0476 31.4109 27.7723 30.9908 27.3725 30.7183C26.9726 30.4458 26.4809 30.3434 26.0055 30.4334C25.5301 30.5235 25.11 30.7987 24.8375 31.1986L23.9022 32.5726C22.2541 34.9769 20.0225 36.9233 17.4167 38.2294L15.1579 39.3669C13.3508 38.0966 11.7736 36.5273 10.4942 34.7266C13.4534 33.731 16.1533 32.0878 18.3971 29.9166C18.7433 29.5781 18.9408 29.1159 18.9463 28.6316C18.9517 28.1474 18.7645 27.6809 18.426 27.3347C18.0874 26.9885 17.6252 26.7909 17.141 26.7855C16.6568 26.7801 16.1902 26.9673 15.844 27.3058C13.8234 29.2637 11.3573 30.7012 8.65792 31.4947C8.54778 31.2509 8.42861 31.0126 8.3293 30.7616C8.04967 30.0749 7.91876 29.3367 7.94522 28.5957C7.97167 27.8547 8.15488 27.1277 8.48278 26.4626C8.81473 25.7797 9.28551 25.1736 9.86502 24.683C10.4445 24.1924 11.12 23.8281 11.8483 23.6134L15.5912 22.5157C17.7632 21.8179 19.8409 20.8549 21.7771 19.6485L36.0681 33.5729C34.1692 37.3527 31.3642 40.6037 27.9033 43.0358V43.0286ZM38.0506 27.3509C37.9125 28.1957 37.7262 29.0318 37.4926 29.8553L24.9061 17.5973C25.8295 16.9337 26.9377 16.5763 28.0749 16.5754C29.4815 16.5736 30.8327 17.1241 31.8376 18.1083L36.4761 22.6384C37.0954 23.243 37.5613 23.9866 37.8351 24.8076C38.109 25.6285 38.1829 26.5029 38.0506 27.3582V27.3509Z" fill="#662E69"/>
</svg>
