<svg width="50" height="50" viewBox="0 0 50 50" fill="none" xmlns="http://www.w3.org/2000/svg">
<path d="M10.5567 16.6388C9.84493 16.6405 9.13981 16.5118 8.48218 16.26C7.82456 16.0083 7.22747 15.6386 6.72548 15.1722L3.93779 12.8798C3.5801 12.5851 3.36373 12.1712 3.33631 11.7291C3.30888 11.287 3.47264 10.8529 3.79155 10.5224C4.11046 10.1918 4.55841 9.9919 5.03684 9.96656C5.51528 9.94121 5.98502 10.0925 6.34272 10.3872L9.20443 12.7464C9.36825 12.9164 9.56799 13.0536 9.79135 13.1496C10.0147 13.2456 10.257 13.2984 10.5032 13.3046C10.7495 13.3109 10.9945 13.2705 11.2232 13.1859C11.452 13.1014 11.6596 12.9745 11.8332 12.8131L18.3402 7.08879C18.6901 6.80094 19.1474 6.65003 19.6155 6.66793C20.0835 6.68584 20.5257 6.87116 20.8487 7.18475C21.1716 7.49833 21.35 7.91564 21.3462 8.34852C21.3424 8.7814 21.1567 9.19596 20.8282 9.50464L14.3483 15.2006C13.8496 15.6588 13.258 16.0216 12.6074 16.2684C11.9568 16.5152 11.26 16.641 10.5567 16.6388ZM46.6667 13.3019C46.6667 12.8595 46.4765 12.4351 46.1379 12.1222C45.7993 11.8093 45.34 11.6335 44.8612 11.6335H26.8062C26.3274 11.6335 25.8681 11.8093 25.5295 12.1222C25.1909 12.4351 25.0007 12.8595 25.0007 13.3019C25.0007 13.7444 25.1909 14.1688 25.5295 14.4817C25.8681 14.7946 26.3274 14.9703 26.8062 14.9703H44.8612C45.34 14.9703 45.7993 14.7946 46.1379 14.4817C46.4765 14.1688 46.6667 13.7444 46.6667 13.3019ZM14.3483 28.5479L20.8282 22.8519C21.0091 22.7031 21.1557 22.5222 21.2594 22.32C21.363 22.1178 21.4216 21.8984 21.4316 21.6748C21.4416 21.4512 21.4029 21.2281 21.3177 21.0186C21.2324 20.8092 21.1025 20.6177 20.9356 20.4556C20.7686 20.2935 20.5681 20.1641 20.346 20.0751C20.1238 19.9861 19.8845 19.9393 19.6424 19.9374C19.4003 19.9356 19.1602 19.9788 18.9365 20.0645C18.7128 20.1501 18.51 20.2765 18.3402 20.4361L11.8405 26.1604C11.4967 26.4641 11.0395 26.6336 10.564 26.6336C10.0884 26.6336 9.63119 26.4641 9.28748 26.1604L6.41674 23.5159C6.07622 23.212 5.62015 23.0439 5.14675 23.0477C4.67336 23.0515 4.22052 23.2269 3.88576 23.5363C3.55101 23.8456 3.36113 24.2641 3.35701 24.7015C3.3529 25.139 3.53488 25.5604 3.86377 25.8751L6.72548 28.5195C7.73597 29.4535 9.10497 29.9805 10.5342 29.9859C11.9634 29.9912 13.3369 29.4743 14.3555 28.5479H14.3483ZM46.6667 26.6492C46.6667 26.2067 46.4765 25.7824 46.1379 25.4695C45.7993 25.1566 45.34 24.9808 44.8612 24.9808H26.8062C26.3274 24.9808 25.8681 25.1566 25.5295 25.4695C25.1909 25.7824 25.0007 26.2067 25.0007 26.6492C25.0007 27.0917 25.1909 27.5161 25.5295 27.829C25.8681 28.1418 26.3274 28.3176 26.8062 28.3176H44.8612C45.34 28.3176 45.7993 28.1418 46.1379 27.829C46.4765 27.5161 46.6667 27.0917 46.6667 26.6492ZM14.3483 41.8951L20.821 36.1992C21.0019 36.0504 21.1485 35.8695 21.2521 35.6673C21.3558 35.4651 21.4144 35.2456 21.4244 35.0221C21.4344 34.7985 21.3957 34.5753 21.3104 34.3659C21.2252 34.1564 21.0953 33.965 20.9283 33.8029C20.7614 33.6408 20.5609 33.5114 20.3387 33.4224C20.1166 33.3333 19.8773 33.2865 19.6352 33.2847C19.393 33.2829 19.153 33.3261 18.9293 33.4117C18.7056 33.4974 18.5028 33.6238 18.333 33.7833L11.8332 39.5076C11.6596 39.6691 11.452 39.796 11.2232 39.8805C10.9945 39.965 10.7495 40.0054 10.5032 39.9991C10.257 39.9929 10.0147 39.9401 9.79135 39.8441C9.56799 39.7481 9.36825 39.6109 9.20443 39.4409L6.34272 37.0818C5.98502 36.7871 5.51528 36.6357 5.03684 36.6611C4.55841 36.6864 4.11046 36.8864 3.79155 37.2169C3.47264 37.5474 3.30888 37.9815 3.33631 38.4236C3.36373 38.8657 3.5801 39.2797 3.93779 39.5744L6.72548 41.8668C7.73597 42.8007 9.10497 43.3278 10.5342 43.3331C11.9634 43.3384 13.3369 42.8216 14.3555 41.8951H14.3483ZM46.6667 39.9965C46.6667 39.554 46.4765 39.1296 46.1379 38.8167C45.7993 38.5038 45.34 38.3281 44.8612 38.3281H26.8062C26.3274 38.3281 25.8681 38.5038 25.5295 38.8167C25.1909 39.1296 25.0007 39.554 25.0007 39.9965C25.0007 40.439 25.1909 40.8633 25.5295 41.1762C25.8681 41.4891 26.3274 41.6649 26.8062 41.6649H44.8612C45.34 41.6649 45.7993 41.4891 46.1379 41.1762C46.4765 40.8633 46.6667 40.439 46.6667 39.9965Z" fill="#662E69"/>
</svg>
