<svg width="50" height="50" viewBox="0 0 50 50" fill="none" xmlns="http://www.w3.org/2000/svg">
<path d="M22.3684 25.0014C22.8336 25.0014 23.2799 25.177 23.6089 25.4896C23.9379 25.8021 24.1227 26.2261 24.1227 26.6682C24.1227 27.1102 23.9379 27.5342 23.6089 27.8467C23.2799 28.1593 22.8336 28.3349 22.3684 28.3349H17.1052C16.6399 28.3349 16.1937 28.1593 15.8647 27.8467C15.5357 27.5342 15.3508 27.1102 15.3508 26.6682C15.3508 26.2261 15.5357 25.8021 15.8647 25.4896C16.1937 25.177 16.6399 25.0014 17.1052 25.0014H22.3684ZM32.8946 20.001C32.8946 19.559 32.7098 19.135 32.3808 18.8224C32.0518 18.5099 31.6055 18.3342 31.1403 18.3342H17.1052C16.6399 18.3342 16.1937 18.5099 15.8647 18.8224C15.5357 19.135 15.3508 19.559 15.3508 20.001C15.3508 20.4431 15.5357 20.867 15.8647 21.1796C16.1937 21.4922 16.6399 21.6678 17.1052 21.6678H31.1403C31.6055 21.6678 32.0518 21.4922 32.3808 21.1796C32.7098 20.867 32.8946 20.4431 32.8946 20.001ZM17.1052 15.0007H31.1403C31.6055 15.0007 32.0518 14.8251 32.3808 14.5125C32.7098 14.1999 32.8946 13.776 32.8946 13.3339C32.8946 12.8918 32.7098 12.4679 32.3808 12.1553C32.0518 11.8427 31.6055 11.6671 31.1403 11.6671H17.1052C16.6399 11.6671 16.1937 11.8427 15.8647 12.1553C15.5357 12.4679 15.3508 12.8918 15.3508 13.3339C15.3508 13.776 15.5357 14.1999 15.8647 14.5125C16.1937 14.8251 16.6399 15.0007 17.1052 15.0007ZM38.1578 37.4089V43.7977C38.1579 44.0354 38.0838 44.2679 37.9448 44.4656C37.8058 44.6634 37.6082 44.8175 37.377 44.9085C37.1458 44.9995 36.8914 45.0233 36.6459 44.9769C36.4005 44.9305 36.175 44.8159 35.9981 44.6477L34.649 43.3676L33.2999 44.6477C33.123 44.8159 32.8976 44.9305 32.6521 44.9769C32.4067 45.0233 32.1522 44.9995 31.921 44.9085C31.6898 44.8175 31.4922 44.6634 31.3532 44.4656C31.2143 44.2679 31.1401 44.0354 31.1403 43.7977V37.4089C29.8023 36.6785 28.7561 35.5483 28.1645 34.1943C27.573 32.8402 27.4693 31.3383 27.8697 29.9225C28.2701 28.5066 29.1521 27.2563 30.3782 26.3663C31.6044 25.4762 33.1059 24.9963 34.649 25.0014C35.2421 25.0084 35.8317 25.088 36.4034 25.2381V13.3339C36.4034 12.0077 35.8489 10.7359 34.8619 9.79813C33.8748 8.86038 32.5361 8.33356 31.1403 8.33356H17.1052C15.7093 8.33356 14.3706 8.86038 13.3836 9.79813C12.3966 10.7359 11.8421 12.0077 11.8421 13.3339V33.3353C11.8421 34.6615 12.3966 35.9333 13.3836 36.8711C14.3706 37.8088 15.7093 38.3356 17.1052 38.3356H25.8771C26.3424 38.3356 26.7886 38.5112 27.1176 38.8238C27.4467 39.1364 27.6315 39.5603 27.6315 40.0024C27.6315 40.4445 27.4467 40.8684 27.1176 41.181C26.7886 41.4936 26.3424 41.6692 25.8771 41.6692H17.1052C14.7796 41.6665 12.5501 40.7877 10.9056 39.2253C9.26117 37.663 8.3361 35.5448 8.33331 33.3353V13.3339C8.3361 11.1244 9.26117 9.0062 10.9056 7.44387C12.5501 5.88153 14.7796 5.00265 17.1052 5L31.1403 5C33.4659 5.00265 35.6954 5.88153 37.3398 7.44387C38.9843 9.0062 39.9094 11.1244 39.9122 13.3339V27.3049C40.5994 28.0381 41.1053 28.908 41.3929 29.851C41.6805 30.794 41.7424 31.7862 41.5742 32.7548C41.406 33.7235 41.0119 34.6442 40.4208 35.4495C39.8297 36.2548 39.0565 36.9242 38.1578 37.4089ZM38.1578 31.6685C38.1578 31.0092 37.952 30.3647 37.5664 29.8165C37.1809 29.2683 36.6329 28.841 35.9918 28.5887C35.3506 28.3364 34.6451 28.2704 33.9645 28.399C33.2839 28.5276 32.6587 28.8451 32.1679 29.3113C31.6772 29.7775 31.3431 30.3715 31.2077 31.0182C31.0723 31.6648 31.1418 32.3351 31.4073 32.9442C31.6729 33.5533 32.1226 34.074 32.6996 34.4403C33.2767 34.8065 33.955 35.0021 34.649 35.0021C35.5796 35.0021 36.4721 34.6508 37.1301 34.0257C37.7881 33.4005 38.1578 32.5526 38.1578 31.6685Z" fill="#662E69"/>
</svg>
