<svg width="20" height="18" viewBox="0 0 20 18" fill="none" xmlns="http://www.w3.org/2000/svg">
<path fill-rule="evenodd" clip-rule="evenodd" d="M0 1.44444C0 1.06135 0.15051 0.693954 0.418419 0.423068C0.686328 0.152182 1.04969 0 1.42857 0H18.5714C18.9503 0 19.3137 0.152182 19.5816 0.423068C19.8495 0.693954 20 1.06135 20 1.44444C20 1.82754 19.8495 2.19493 19.5816 2.46582C19.3137 2.73671 18.9503 2.88889 18.5714 2.88889H1.42857C1.04969 2.88889 0.686328 2.73671 0.418419 2.46582C0.15051 2.19493 0 1.82754 0 1.44444ZM0 8.66667C0 8.28358 0.15051 7.91618 0.418419 7.64529C0.686328 7.3744 1.04969 7.22222 1.42857 7.22222H18.5714C18.9503 7.22222 19.3137 7.3744 19.5816 7.64529C19.8495 7.91618 20 8.28358 20 8.66667C20 9.04976 19.8495 9.41716 19.5816 9.68804C19.3137 9.95893 18.9503 10.1111 18.5714 10.1111H1.42857C1.04969 10.1111 0.686328 9.95893 0.418419 9.68804C0.15051 9.41716 0 9.04976 0 8.66667ZM8.57143 15.8889C8.57143 15.5058 8.72194 15.1384 8.98985 14.8675C9.25776 14.5966 9.62112 14.4444 10 14.4444H18.5714C18.9503 14.4444 19.3137 14.5966 19.5816 14.8675C19.8495 15.1384 20 15.5058 20 15.8889C20 16.272 19.8495 16.6394 19.5816 16.9103C19.3137 17.1812 18.9503 17.3333 18.5714 17.3333H10C9.62112 17.3333 9.25776 17.1812 8.98985 16.9103C8.72194 16.6394 8.57143 16.272 8.57143 15.8889Z" fill="#354252"/>
</svg>
