<svg width="50" height="50" viewBox="0 0 50 50" fill="none" xmlns="http://www.w3.org/2000/svg">
<path d="M24.2667 27.3911V40.1448H9.60002V27.3911H24.2667ZM24.2667 24.2027H9.60002C8.82205 24.2027 8.07595 24.5387 7.52584 25.1366C6.97573 25.7345 6.66669 26.5455 6.66669 27.3911V40.1448C6.66669 40.9904 6.97573 41.8014 7.52584 42.3993C8.07595 42.9972 8.82205 43.3332 9.60002 43.3332H24.2667C25.0447 43.3332 25.7908 42.9972 26.3409 42.3993C26.891 41.8014 27.2 40.9904 27.2 40.1448V27.3911C27.2 26.5455 26.891 25.7345 26.3409 25.1366C25.7908 24.5387 25.0447 24.2027 24.2667 24.2027ZM40.4 9.85491V17.8259H25.7334V9.85491H40.4ZM40.4 6.6665H25.7334C24.9554 6.6665 24.2093 7.00242 23.6592 7.60037C23.1091 8.19831 22.8 9.00929 22.8 9.85491V17.8259C22.8 18.6715 23.1091 19.4825 23.6592 20.0805C24.2093 20.6784 24.9554 21.0143 25.7334 21.0143H40.4C41.178 21.0143 41.9241 20.6784 42.4742 20.0805C43.0243 19.4825 43.3334 18.6715 43.3334 17.8259V9.85491C43.3334 9.00929 43.0243 8.19831 42.4742 7.60037C41.9241 7.00242 41.178 6.6665 40.4 6.6665ZM40.4 27.3911V35.3622H33.0667V27.3911H40.4ZM40.4 24.2027H33.0667C32.2887 24.2027 31.5426 24.5387 30.9925 25.1366C30.4424 25.7345 30.1334 26.5455 30.1334 27.3911V35.3622C30.1334 36.2078 30.4424 37.0188 30.9925 37.6167C31.5426 38.2146 32.2887 38.5506 33.0667 38.5506H40.4C41.178 38.5506 41.9241 38.2146 42.4742 37.6167C43.0243 37.0188 43.3334 36.2078 43.3334 35.3622V27.3911C43.3334 26.5455 43.0243 25.7345 42.4742 25.1366C41.9241 24.5387 41.178 24.2027 40.4 24.2027ZM16.9334 9.85491V17.8259H9.60002V9.85491H16.9334ZM16.9334 6.6665H9.60002C8.82205 6.6665 8.07595 7.00242 7.52584 7.60037C6.97573 8.19831 6.66669 9.00929 6.66669 9.85491V17.8259C6.66669 18.6715 6.97573 19.4825 7.52584 20.0805C8.07595 20.6784 8.82205 21.0143 9.60002 21.0143H16.9334C17.7113 21.0143 18.4574 20.6784 19.0075 20.0805C19.5576 19.4825 19.8667 18.6715 19.8667 17.8259V9.85491C19.8667 9.00929 19.5576 8.19831 19.0075 7.60037C18.4574 7.00242 17.7113 6.6665 16.9334 6.6665Z" fill="#662E69"/>
</svg>
