<svg width="50" height="50" viewBox="0 0 50 50" fill="none" xmlns="http://www.w3.org/2000/svg">
<path d="M22.6659 11.188C21.6509 11.2619 20.6324 11.1044 19.685 10.7273C18.7376 10.3501 17.8852 9.76268 17.1901 9.008L17.0247 9.006C16.3294 9.76095 15.4766 10.3485 14.5289 10.7257C13.5811 11.1029 12.5623 11.2602 11.547 11.186C11.3924 12.2301 11.0058 13.2247 10.4165 14.0945C9.82708 14.9642 9.05039 15.6863 8.14528 16.206C8.52658 17.0866 8.72347 18.038 8.72347 19C8.72347 19.962 8.52658 20.9134 8.14528 21.794C9.05039 22.3137 9.82708 23.0358 10.4165 23.9055C11.0058 24.7753 11.3924 25.7699 11.547 26.814C12.562 26.7401 13.5804 26.8976 14.5278 27.2747C15.4752 27.6519 16.3276 28.2393 17.0227 28.994H17.1882C17.8832 28.2393 18.7357 27.6519 19.6831 27.2747C20.6305 26.8976 21.6489 26.7401 22.6639 26.814C22.8184 25.7699 23.205 24.7753 23.7944 23.9055C24.3838 23.0358 25.1605 22.3137 26.0656 21.794C25.6843 20.9134 25.4874 19.962 25.4874 19C25.4874 18.038 25.6843 17.0866 26.0656 16.206C25.1609 15.6861 24.3845 14.9639 23.7955 14.0941C23.2065 13.2244 22.8202 12.2299 22.6659 11.186V11.188ZM30.9091 16.428C30.4588 16.6841 30.084 17.0574 29.823 17.5094C29.5621 17.9615 29.4246 18.476 29.4246 19C29.4246 19.524 29.5621 20.0385 29.823 20.4906C30.084 20.9426 30.4588 21.3159 30.9091 21.572L29.9203 24.94C29.3859 24.8462 28.8364 24.9064 28.334 25.1137C27.8317 25.321 27.3966 25.667 27.0781 26.1127C26.7596 26.5583 26.5704 27.0856 26.5321 27.6349C26.4938 28.1841 26.6079 28.7332 26.8613 29.22L24.0191 31.464C23.6426 31.1508 23.1946 30.9388 22.7163 30.8475C22.238 30.7561 21.7448 30.7885 21.282 30.9414C20.8193 31.0944 20.4018 31.3631 20.0681 31.7229C19.7345 32.0826 19.4953 32.5218 19.3726 33L14.8344 32.988C14.7099 32.5127 14.4702 32.0766 14.1372 31.7195C13.8042 31.3624 13.3885 31.0956 12.9279 30.9435C12.4673 30.7914 11.9765 30.7588 11.5003 30.8487C11.0241 30.9385 10.5777 31.148 10.2016 31.458L7.36134 29.196C7.60803 28.7112 7.71723 28.1663 7.67677 27.6221C7.63632 27.0779 7.44779 26.5558 7.13222 26.1141C6.81665 25.6723 6.38644 25.3283 5.88956 25.1202C5.39268 24.9122 4.84866 24.8484 4.31816 24.936L3.33331 21.556C3.77558 21.2975 4.14294 20.9253 4.39838 20.4767C4.65383 20.0281 4.78832 19.5191 4.78832 19.001C4.78832 18.4829 4.65383 17.9739 4.39838 17.5253C4.14294 17.0767 3.77558 16.7045 3.33331 16.446L4.31816 13.066C4.84866 13.1536 5.39268 13.0898 5.88956 12.8818C6.38644 12.6737 6.81665 12.3297 7.13222 11.8879C7.44779 11.4462 7.63632 10.9241 7.67677 10.3799C7.71723 9.83574 7.60803 9.29085 7.36134 8.806L10.2016 6.54C10.5777 6.85045 11.0243 7.06032 11.5007 7.15044C11.9772 7.24056 12.4682 7.20806 12.9291 7.05592C13.39 6.90377 13.806 6.63682 14.1392 6.27943C14.4723 5.92205 14.712 5.48562 14.8363 5.01L19.3726 5C19.4954 5.47786 19.7346 5.91669 20.0681 6.27614C20.4017 6.6356 20.8189 6.90414 21.2813 7.05709C21.7438 7.21003 22.2367 7.24247 22.7148 7.15142C23.1928 7.06036 23.6407 6.84874 24.0171 6.536L26.8613 8.78C26.6079 9.26676 26.4938 9.81589 26.5321 10.3651C26.5704 10.9144 26.7596 11.4417 27.0781 11.8873C27.3966 12.333 27.8317 12.679 28.334 12.8863C28.8364 13.0936 29.3859 13.1538 29.9203 13.06L30.9091 16.428ZM19.4612 34.824C21.0641 34.5828 22.6203 34.0903 24.0742 33.364C24.0218 33.5092 23.9647 33.6526 23.9029 33.794C24.808 34.3137 25.5847 35.0358 26.174 35.9055C26.7634 36.7753 27.15 37.7699 27.3045 38.814C28.3195 38.7401 29.338 38.8976 30.2854 39.2747C31.2328 39.6519 32.0852 40.2393 32.7803 40.994H32.9457C33.6408 40.2393 34.4932 39.6519 35.4406 39.2747C36.388 38.8976 37.4065 38.7401 38.4215 38.814C38.576 37.7699 38.9626 36.7753 39.552 35.9055C40.1414 35.0358 40.9181 34.3137 41.8232 33.794C41.4419 32.9134 41.245 31.962 41.245 31C41.245 30.038 41.4419 29.0866 41.8232 28.206C40.9184 27.6861 40.1421 26.9639 39.5531 26.0942C38.9641 25.2244 38.5778 24.2299 38.4235 23.186C37.4084 23.2599 36.39 23.1024 35.4426 22.7253C34.4952 22.3481 33.6428 21.7607 32.9477 21.006H32.7823L32.7527 21.038C32.9199 19.6994 32.9212 18.3449 32.7566 17.006L35.1321 17C35.2549 17.4779 35.4941 17.9167 35.8277 18.2761C36.1612 18.6356 36.5784 18.9041 37.0409 19.0571C37.5034 19.21 37.9963 19.2425 38.4743 19.1514C38.9524 19.0604 39.4002 18.8487 39.7766 18.536L42.6209 20.78C42.3674 21.2668 42.2534 21.8159 42.2917 22.3651C42.33 22.9144 42.5191 23.4417 42.8376 23.8873C43.1561 24.333 43.5912 24.679 44.0936 24.8863C44.596 25.0936 45.1455 25.1538 45.6798 25.06L46.6666 28.428C46.2164 28.6841 45.8415 29.0574 45.5806 29.5094C45.3197 29.9615 45.1822 30.476 45.1822 31C45.1822 31.524 45.3197 32.0385 45.5806 32.4906C45.8415 32.9426 46.2164 33.3159 46.6666 33.572L45.6779 36.94C45.1435 36.8462 44.594 36.9064 44.0916 37.1137C43.5892 37.321 43.1541 37.667 42.8356 38.1127C42.5171 38.5583 42.328 39.0856 42.2897 39.6349C42.2514 40.1841 42.3655 40.7332 42.6189 41.22L39.7766 43.464C39.4002 43.1508 38.9522 42.9388 38.4739 42.8475C37.9956 42.7561 37.5024 42.7885 37.0396 42.9414C36.5768 43.0944 36.1594 43.3631 35.8257 43.7229C35.492 44.0826 35.2528 44.5218 35.1301 45L30.592 44.988C30.4675 44.5127 30.2278 44.0766 29.8948 43.7195C29.5618 43.3624 29.146 43.0956 28.6854 42.9435C28.2248 42.7914 27.7341 42.7588 27.2579 42.8487C26.7817 42.9385 26.3352 43.148 25.9592 43.458L23.1189 41.196C23.3656 40.7112 23.4748 40.1663 23.4343 39.6221C23.3939 39.0779 23.2054 38.5558 22.8898 38.1141C22.5742 37.6723 22.144 37.3283 21.6471 37.1203C21.1503 36.9122 20.6062 36.8484 20.0757 36.936L19.4612 34.824ZM17.1212 25C16.3452 25 15.5768 24.8448 14.8599 24.5433C14.143 24.2417 13.4915 23.7998 12.9428 23.2426C12.3941 22.6855 11.9589 22.0241 11.6619 21.2961C11.3649 20.5681 11.2121 19.7879 11.2121 19C11.2121 18.2121 11.3649 17.4319 11.6619 16.7039C11.9589 15.9759 12.3941 15.3145 12.9428 14.7574C13.4915 14.2002 14.143 13.7583 14.8599 13.4567C15.5768 13.1552 16.3452 13 17.1212 13C18.6884 13 20.1914 13.6321 21.2996 14.7574C22.4077 15.8826 23.0303 17.4087 23.0303 19C23.0303 20.5913 22.4077 22.1174 21.2996 23.2426C20.1914 24.3679 18.6884 25 17.1212 25ZM17.1212 21C17.6436 21 18.1446 20.7893 18.514 20.4142C18.8834 20.0391 19.0909 19.5304 19.0909 19C19.0909 18.4696 18.8834 17.9609 18.514 17.5858C18.1446 17.2107 17.6436 17 17.1212 17C16.5988 17 16.0978 17.2107 15.7284 17.5858C15.359 17.9609 15.1515 18.4696 15.1515 19C15.1515 19.5304 15.359 20.0391 15.7284 20.4142C16.0978 20.7893 16.5988 21 17.1212 21ZM32.8788 37C31.3116 37 29.8086 36.3679 28.7004 35.2426C27.5922 34.1174 26.9697 32.5913 26.9697 31C26.9697 29.4087 27.5922 27.8826 28.7004 26.7574C29.8086 25.6321 31.3116 25 32.8788 25C34.446 25 35.949 25.6321 37.0571 26.7574C38.1653 27.8826 38.7879 29.4087 38.7879 31C38.7879 32.5913 38.1653 34.1174 37.0571 35.2426C35.949 36.3679 34.446 37 32.8788 37ZM32.8788 33C33.4012 33 33.9022 32.7893 34.2716 32.4142C34.6409 32.0391 34.8485 31.5304 34.8485 31C34.8485 30.4696 34.6409 29.9609 34.2716 29.5858C33.9022 29.2107 33.4012 29 32.8788 29C32.3564 29 31.8554 29.2107 31.486 29.5858C31.1166 29.9609 30.9091 30.4696 30.9091 31C30.9091 31.5304 31.1166 32.0391 31.486 32.4142C31.8554 32.7893 32.3564 33 32.8788 33Z" fill="#662E69"/>
</svg>
