<svg width="50" height="50" viewBox="0 0 50 50" fill="none" xmlns="http://www.w3.org/2000/svg">
<path d="M46.0062 40.1169C45.59 40.8555 44.9834 41.469 44.2495 41.8936C43.5156 42.3181 42.6813 42.5381 41.8334 42.5307H31.6602L32.2637 43.1341C32.4566 43.3263 32.6097 43.5547 32.7141 43.8062C32.8185 44.0577 32.8723 44.3273 32.8723 44.5996C32.8723 44.8719 32.8185 45.1415 32.7141 45.393C32.6097 45.6445 32.4566 45.8729 32.2637 46.0651C31.8733 46.4504 31.3467 46.6665 30.7981 46.6665C30.2495 46.6665 29.7229 46.4504 29.3325 46.0651L25.1942 41.9272C24.8088 41.5368 24.5927 41.0103 24.5927 40.4617C24.5927 39.9132 24.8088 39.3867 25.1942 38.9962L29.3325 34.8584C29.7212 34.4697 30.2484 34.2514 30.7981 34.2514C31.3478 34.2514 31.875 34.4697 32.2637 34.8584C32.6524 35.2471 32.8708 35.7742 32.8708 36.3239C32.8708 36.8735 32.6524 37.4007 32.2637 37.7894L31.6602 38.3928H41.8334C41.9534 38.3945 42.0715 38.3632 42.1748 38.3024C42.2782 38.2416 42.3629 38.1536 42.4197 38.048C42.4838 37.9444 42.5178 37.825 42.5178 37.7032C42.5178 37.5813 42.4838 37.4619 42.4197 37.3583L38.9884 31.4102C38.8525 31.1747 38.7644 30.9148 38.729 30.6452C38.6936 30.3757 38.7116 30.1018 38.7821 29.8393C38.8525 29.5767 38.974 29.3306 39.1396 29.115C39.3052 28.8994 39.5116 28.7185 39.7471 28.5826C39.9826 28.4468 40.2425 28.3586 40.5121 28.3232C40.7816 28.2879 41.0555 28.3059 41.3181 28.3763C41.5807 28.4468 41.8268 28.5682 42.0425 28.7338C42.2581 28.8994 42.439 29.1058 42.5749 29.3412L46.0062 35.2894C46.4386 36.0203 46.6667 36.8539 46.6667 37.7032C46.6667 38.5524 46.4386 39.386 46.0062 40.1169ZM26.6598 10.8071C26.782 10.806 26.9022 10.8373 27.0082 10.8979C27.1142 10.9585 27.2023 11.0462 27.2633 11.1519L32.3327 19.9276L31.5223 19.7035C31.2596 19.6333 30.9857 19.6155 30.7162 19.6512C30.4466 19.6868 30.1868 19.7752 29.9514 19.9113C29.716 20.0474 29.5098 20.2285 29.3444 20.4443C29.179 20.6601 29.0578 20.9063 28.9876 21.169C28.9174 21.4316 28.8996 21.7055 28.9353 21.975C28.971 22.2445 29.0594 22.5044 29.1955 22.7397C29.3316 22.975 29.5127 23.1813 29.7285 23.3466C29.9443 23.512 30.1906 23.6332 30.4532 23.7034L36.0916 25.2206C36.2658 25.2678 36.4457 25.291 36.6261 25.2896C37.0813 25.287 37.5231 25.1356 37.8842 24.8586C38.2453 24.5816 38.5059 24.194 38.6263 23.7551L40.1437 18.1001C40.2854 17.5696 40.2107 17.0046 39.9358 16.5293C39.6609 16.054 39.2085 15.7074 38.678 15.5656C38.1476 15.4239 37.5825 15.4986 37.1071 15.7735C36.6318 16.0483 36.2851 16.5007 36.1433 17.0311L35.9192 17.8587L30.8326 9.08298C30.4112 8.34866 29.8035 7.73853 29.0709 7.31423C28.3382 6.88994 27.5065 6.6665 26.6598 6.6665C25.8132 6.6665 24.9815 6.88994 24.2488 7.31423C23.5161 7.73853 22.9084 8.34866 22.4871 9.08298L19.0385 15.0139C18.7619 15.4895 18.6855 16.0554 18.8261 16.5873C18.9668 17.1192 19.313 17.5734 19.7886 17.8501C20.2642 18.1267 20.8302 18.2031 21.3622 18.0625C21.8941 17.9218 22.3484 17.5756 22.625 17.1001L26.0563 11.1519C26.1174 11.0462 26.2054 10.9585 26.3115 10.8979C26.4175 10.8373 26.5377 10.806 26.6598 10.8071ZM18.3833 38.3928H11.4862C11.3663 38.3945 11.2482 38.3632 11.1449 38.3024C11.0415 38.2416 10.9568 38.1536 10.9 38.048C10.8359 37.9444 10.8019 37.825 10.8019 37.7032C10.8019 37.5813 10.8359 37.4619 10.9 37.3583L15.9866 28.5654L16.2107 29.4102C16.3277 29.8477 16.5851 30.2348 16.9433 30.512C17.3015 30.7891 17.7407 30.9412 18.1937 30.9447C18.3793 30.9387 18.564 30.9156 18.7454 30.8757C19.0078 30.8058 19.2538 30.6846 19.469 30.519C19.6842 30.3534 19.8643 30.1467 19.9991 29.911C20.1338 29.6752 20.2204 29.4151 20.2538 29.1456C20.2872 28.8762 20.2668 28.6028 20.1938 28.3413L18.6937 22.6862C18.5436 22.1592 18.1983 21.7091 17.7281 21.4276C17.2525 21.1552 16.6889 21.0809 16.159 21.2207L10.5034 22.7379C9.97292 22.8797 9.52049 23.2263 9.24563 23.7016C8.97077 24.1769 8.89599 24.7419 9.03776 25.2723C9.17952 25.8028 9.52621 26.2552 10.0016 26.53C10.4769 26.8048 11.042 26.8796 11.5724 26.7378L12.3829 26.5137L7.31349 35.2894C6.8901 36.0227 6.66703 36.8544 6.66666 37.7011C6.66629 38.5478 6.88863 39.3796 7.31138 40.1133C7.73413 40.8469 8.34241 41.4564 9.07519 41.8807C9.80796 42.305 10.6395 42.5292 11.4862 42.5307H18.3833C18.9321 42.5307 19.4584 42.3127 19.8464 41.9247C20.2345 41.5367 20.4525 41.0104 20.4525 40.4617C20.4525 39.913 20.2345 39.3868 19.8464 38.9988C19.4584 38.6108 18.9321 38.3928 18.3833 38.3928Z" fill="#662E69"/>
</svg>
