<svg width="50" height="50" viewBox="0 0 50 50" fill="none" xmlns="http://www.w3.org/2000/svg">
<path d="M38.7122 11.3405L38.6693 11.3291L36.4834 10.6199C35.818 10.3988 35.2132 10.0255 34.7172 9.5295C34.2211 9.03356 33.8475 8.42867 33.6259 7.7629L32.9173 5.57799C32.8581 5.40906 32.748 5.26271 32.6021 5.15916C32.4562 5.05562 32.2818 5 32.1029 5C31.9241 5 31.7496 5.05562 31.6037 5.15916C31.4578 5.26271 31.3477 5.40906 31.2885 5.57799L30.5742 7.7629C30.3579 8.42369 29.9918 9.02544 29.5045 9.52108C29.0172 10.0167 28.422 10.3928 27.7653 10.6199L26.068 11.1718H26.0594L25.5679 11.3291C25.3992 11.3887 25.2533 11.4997 25.1507 11.6466C25.0726 11.7552 25.0209 11.8806 24.9999 12.0128C24.9788 12.145 24.989 12.2803 25.0295 12.4079C25.0701 12.5354 25.1399 12.6517 25.2334 12.7475C25.3269 12.8432 25.4414 12.9157 25.5679 12.9592L27.7596 13.6713L27.9968 13.7571L28.0196 13.7628C28.5897 13.9928 29.1068 14.337 29.5392 14.7742C29.9716 15.2114 30.3102 15.7324 30.5342 16.3052L30.6199 16.534L31.3286 18.7218C31.3879 18.8911 31.4985 19.0377 31.645 19.1413C31.7914 19.2448 31.9665 19.3001 32.1458 19.2995H32.1572C32.3341 19.2971 32.5059 19.2405 32.6496 19.1371C32.7932 19.0338 32.9016 18.8888 32.9602 18.7218L33.6717 16.5369C33.8925 15.8712 34.2656 15.2663 34.7612 14.7703C35.2567 14.2743 35.8611 13.901 36.5263 13.6799L38.7122 12.9707C38.8797 12.9101 39.0245 12.7994 39.1268 12.6536C39.2291 12.5077 39.284 12.3338 39.284 12.1556C39.284 11.9774 39.2291 11.8035 39.1268 11.6576C39.0245 11.5118 38.8797 11.4011 38.7122 11.3405ZM42.7584 20.9353L44.5071 21.5044L44.5443 21.513C44.6778 21.5614 44.7932 21.6499 44.8747 21.7663C44.9563 21.8827 45 22.0214 45 22.1636C45 22.3057 44.9563 22.4445 44.8747 22.5609C44.7932 22.6773 44.6778 22.7657 44.5443 22.8142L42.7926 23.3862C42.2611 23.563 41.7781 23.8613 41.3818 24.2574C40.9855 24.6535 40.6869 25.1366 40.5095 25.6683L39.9409 27.4185C39.8919 27.5562 39.8005 27.6747 39.6798 27.757C39.559 27.8392 39.4153 27.8809 39.2694 27.8761C39.1285 27.8756 38.9912 27.8313 38.8766 27.7493C38.7619 27.6674 38.6755 27.5518 38.6293 27.4185L38.0578 25.6683C37.8806 25.1354 37.5817 24.6512 37.1849 24.2541C36.7881 23.857 36.3043 23.5579 35.7719 23.3804L35.7033 23.3576L35.7005 23.349L34.0346 22.8056C33.901 22.7571 33.7856 22.6687 33.7041 22.5523C33.6226 22.4359 33.5788 22.2972 33.5788 22.155C33.5788 22.0128 33.6226 21.8741 33.7041 21.7577C33.7856 21.6413 33.901 21.5529 34.0346 21.5044L35.7862 20.9324C36.3114 20.7513 36.7877 20.451 37.1778 20.0551C37.568 19.6593 37.8613 19.1784 38.035 18.6503L38.6036 16.9001C38.6515 16.7654 38.7398 16.6489 38.8564 16.5666C38.9731 16.4842 39.1124 16.44 39.2551 16.44C39.3979 16.44 39.5372 16.4842 39.6538 16.5666C39.7705 16.6489 39.8588 16.7654 39.9066 16.9001L40.4753 18.6503C40.6518 19.1827 40.9502 19.6666 41.3465 20.0633C41.7429 20.46 42.2263 20.7586 42.7584 20.9353ZM22.3133 13.2738C22.3468 13.3784 22.385 13.4814 22.4276 13.5827L22.1447 13.5798C19.3745 13.5802 16.6641 14.3867 14.3435 15.9009C12.023 17.4152 10.1923 19.5721 9.07446 22.1089C7.95659 24.6457 7.59971 27.453 8.04727 30.1891C8.49483 32.9253 9.72752 35.4721 11.5953 37.5198C13.463 39.5674 15.8853 41.0274 18.5672 41.722C21.2491 42.4167 24.0749 42.316 26.7006 41.4323C29.3264 40.5486 31.6388 38.92 33.3564 36.7447C35.074 34.5694 36.1227 31.9412 36.3748 29.1802C36.6753 29.6247 37.0726 29.9951 37.5369 30.2636C38.0012 30.5321 38.5203 30.6917 39.0551 30.7302C38.331 34.9658 36.0458 38.7754 32.6511 41.4065C29.2565 44.0375 24.9992 45.2984 20.7206 44.9402C16.442 44.582 12.4533 42.6306 9.54261 39.4717C6.6319 36.3128 5.01093 32.1761 5 27.879C4.9997 25.6021 5.45218 23.3479 6.33106 21.2478C7.20994 19.1477 8.49766 17.2436 10.1192 15.6466C11.7407 14.0495 13.6635 12.7915 15.7757 11.9456C17.8879 11.0998 20.1472 10.6832 22.4219 10.72C22.0852 11.5316 22.0468 12.4364 22.3133 13.2738ZM17.1442 27.164C17.7125 27.164 18.2577 26.938 18.6596 26.5358C19.0615 26.1335 19.2873 25.588 19.2873 25.0191C19.2873 24.4503 19.0615 23.9047 18.6596 23.5025C18.2577 23.1002 17.7125 22.8743 17.1442 22.8743C16.5758 22.8743 16.0307 23.1002 15.6288 23.5025C15.2269 23.9047 15.0011 24.4503 15.0011 25.0191C15.0011 25.588 15.2269 26.1335 15.6288 26.5358C16.0307 26.938 16.5758 27.164 17.1442 27.164ZM16.8184 32.6463C16.6938 32.5044 16.5424 32.3886 16.3728 32.3056C16.2033 32.2227 16.019 32.1741 15.8306 32.1628C15.6422 32.1515 15.4534 32.1777 15.2752 32.2398C15.097 32.302 14.9328 32.3988 14.7922 32.5248C14.6516 32.6508 14.5373 32.8035 14.4559 32.9739C14.3746 33.1444 14.3278 33.3293 14.3183 33.5179C14.3087 33.7066 14.3366 33.8953 14.4004 34.0731C14.4641 34.2509 14.5624 34.4142 14.6896 34.5538C15.6271 35.6042 16.776 36.4443 18.0608 37.019C19.3457 37.5937 20.7374 37.89 22.1447 37.8884C23.552 37.89 24.9437 37.5937 26.2286 37.019C27.5134 36.4443 28.6623 35.6042 29.5998 34.5538C29.8484 34.2707 29.9752 33.9007 29.9527 33.5244C29.9302 33.1482 29.7602 32.796 29.4796 32.5446C29.199 32.2932 28.8305 32.1628 28.4544 32.1818C28.0782 32.2009 27.7248 32.3678 27.471 32.6463C26.8016 33.3973 25.9808 33.9978 25.0628 34.4084C24.1448 34.819 23.1502 35.0304 22.1447 35.0285C20.0302 35.0285 18.13 34.1105 16.8184 32.6463ZM29.2883 25.0191C29.2883 25.588 29.0625 26.1335 28.6606 26.5358C28.2587 26.938 27.7136 27.164 27.1452 27.164C26.5769 27.164 26.0318 26.938 25.6299 26.5358C25.2279 26.1335 25.0022 25.588 25.0022 25.0191C25.0022 24.4503 25.2279 23.9047 25.6299 23.5025C26.0318 23.1002 26.5769 22.8743 27.1452 22.8743C27.7136 22.8743 28.2587 23.1002 28.6606 23.5025C29.0625 23.9047 29.2883 24.4503 29.2883 25.0191Z" fill="#662E69"/>
</svg>
